<svg version="1.1" xmlns="http://www.w3.org/2000/svg" viewBox="500 500 1030 300" preserveAspectRatio="xMidYMid meet">
<defs>
	<linearGradient id="Gradient1" gradientUnits="userSpaceOnUse" x1="1346.71" y1="735.426" x2="1344.28" y2="513.553">
		<stop class="stop0" offset="0" stop-opacity="1" stop-color="rgb(29,29,29)"/>
		<stop class="stop1" offset="1" stop-opacity="1" stop-color="rgb(103,103,103)"/>
	</linearGradient>
	<linearGradient id="Gradient2" gradientUnits="userSpaceOnUse" x1="685.21" y1="734.881" x2="684.856" y2="514.901">
		<stop class="stop0" offset="0" stop-opacity="1" stop-color="rgb(31,32,31)"/>
		<stop class="stop1" offset="1" stop-opacity="1" stop-color="rgb(102,102,103)"/>
	</linearGradient>
	<linearGradient id="Gradient3" gradientUnits="userSpaceOnUse" x1="1010.32" y1="735.406" x2="1005.89" y2="512.537">
		<stop class="stop0" offset="0" stop-opacity="1" stop-color="rgb(30,31,30)"/>
		<stop class="stop1" offset="1" stop-opacity="1" stop-color="rgb(104,104,105)"/>
	</linearGradient>
</defs>
<path fill="url(#Gradient3)" d="M 879.773 513.85 L 1026.59 513.759 C 1057.88 513.708 1130.34 510.044 1156.24 525.234 C 1164.77 530.265 1170.87 538.573 1173.11 548.222 C 1176.51 562.216 1172.96 581.53 1165.35 593.691 C 1153.81 612.104 1137.73 616.766 1118.23 621.53 C 1127.14 623.642 1133.07 624.595 1141.44 628.839 C 1170.77 643.717 1162.97 683.409 1149.81 707.156 C 1124.69 739.149 1079.95 736.616 1043.23 737.011 C 1028.57 737.169 1013.84 736.991 999.18 736.987 L 843.411 737.014 L 879.773 513.85 z"/>
<path fill="rgb(255,255,255)" d="M 945.363 647.153 C 980.605 647.683 1016.01 646.357 1051.28 647.473 C 1077.74 648.31 1074.24 672.482 1058.48 684.287 C 1039.46 691.784 962.268 688.756 938.439 688.632 C 941.207 676.456 943.927 659.561 945.363 647.153 z"/>
<path fill="rgb(255,255,255)" d="M 959.794 563.822 C 994.047 564.336 1028.43 563.549 1062.73 563.989 C 1086.69 564.296 1081.97 587.919 1070.01 597.614 C 1056.85 604.061 1032.93 602.315 1018.08 602.266 L 953.419 602.02 C 955.848 589.046 958.128 576.949 959.794 563.822 z"/>
<path fill="url(#Gradient2)" d="M 615.341 514.379 C 627.105 512.508 671.949 513.835 686.713 513.845 L 851.624 513.782 C 848.714 530.479 845.713 547.033 843.489 563.841 L 719.287 563.887 C 696.941 563.886 673.237 562.307 651.07 565.026 C 644.63 565.816 637.053 566.924 632.063 571.481 C 628.802 574.459 626.99 578.347 625.701 582.485 C 620.668 598.64 619.351 617.682 616.552 634.481 C 614.865 644.607 611.852 654.757 611.463 665.055 C 611.278 669.962 611.847 675.779 615.516 679.404 C 628.929 692.652 711.709 688.218 733.943 688.171 C 735.942 675.148 738.29 661.964 740.482 648.955 L 684.436 648.928 C 687.131 636.541 689.278 622.52 691.381 609.916 C 691.909 606.698 691.913 605.248 693.6 602.474 C 700.721 601.368 730.394 601.956 739.513 601.955 L 838.53 601.941 C 831.234 647.021 823.557 692.039 815.5 736.99 L 662.477 737.049 C 630.004 737.101 561.636 741.671 536.401 722.043 C 527.767 715.287 522.191 705.36 520.915 694.471 C 518.003 668.934 533.771 591.474 540.608 563.638 C 542.095 557.581 548.814 543.606 553.241 538.627 C 568.89 521.029 593.428 516.747 615.341 514.379 z"/>
<path fill="rgb(102,103,104)" d="M 715.213 521.493 L 798.522 521.369 C 810.297 521.355 831.836 520.727 842.69 521.818 L 841.506 524.056 C 839.512 525.241 832.673 526.835 830.122 527.505 C 822.793 527.433 815.69 530.245 808.474 531.185 C 798.898 532.434 791.4 527.125 782.35 526.953 C 772.135 526.758 723.262 532.738 717.023 526.972 C 715.023 525.124 715.18 523.959 715.213 521.493 z"/>
<path fill="rgb(102,103,104)" d="M 611.745 521.5 C 619.202 521.396 625.422 521.441 632.891 521.796 C 621.986 529.143 602.136 531.736 588.269 533.685 C 582.711 534.876 578.88 534.507 573.349 533.789 L 573.542 532.64 C 584.67 525.364 598.774 523.682 611.745 521.5 z"/>
<path fill="url(#Gradient1)" d="M 1209.76 513.835 L 1298.45 513.893 C 1292.68 541.707 1289.25 571.76 1283.48 600.05 L 1415.52 600.08 C 1419.26 572.485 1425.97 542.137 1430.39 513.975 L 1518.53 513.959 L 1480.11 736.866 L 1391.15 736.91 C 1396.38 707.709 1401.02 678.124 1406.4 649.069 L 1275.97 649.14 L 1261.2 736.908 L 1173.44 736.936 C 1179.72 701.788 1185.56 666.562 1190.95 631.267 C 1197.42 592.155 1203.69 553.01 1209.76 513.835 z"/>
<path fill="rgb(174,20,20)" d="M 515.764 767.291 L 1475.42 767.222 C 1473.99 774.178 1472.78 781.436 1471.51 788.443 C 1366.75 786.871 1258.18 788.285 1153.21 788.293 L 512.194 788.293 L 515.764 767.291 z"/>
</svg>