<svg version="1.1" xmlns="http://www.w3.org/2000/svg" viewBox="440 490 1095 400" preserveAspectRatio="xMidYMid meet">
<defs>
	<linearGradient id="Gradient1" gradientUnits="userSpaceOnUse" x1="1299.13" y1="735.693" x2="1263.52" y2="784.247">
		<stop class="stop0" offset="0" stop-opacity="1" stop-color="rgb(148,142,141)"/>
		<stop class="stop1" offset="1" stop-opacity="1" stop-color="rgb(219,217,217)"/>
	</linearGradient>
	<linearGradient id="Gradient2" gradientUnits="userSpaceOnUse" x1="617.739" y1="743.7" x2="497.859" y2="751.535">
		<stop class="stop0" offset="0" stop-opacity="1" stop-color="rgb(61,60,60)"/>
		<stop class="stop1" offset="1" stop-opacity="1" stop-color="rgb(97,97,97)"/>
	</linearGradient>
	<linearGradient id="Gradient3" gradientUnits="userSpaceOnUse" x1="668.077" y1="651.873" x2="631.432" y2="666.193">
		<stop class="stop0" offset="0" stop-opacity="1" stop-color="rgb(107,107,108)"/>
		<stop class="stop1" offset="1" stop-opacity="1" stop-color="rgb(165,164,163)"/>
	</linearGradient>
	<linearGradient id="Gradient4" gradientUnits="userSpaceOnUse" x1="689.346" y1="628.368" x2="662.794" y2="646.489">
		<stop class="stop0" offset="0" stop-opacity="1" stop-color="rgb(65,65,65)"/>
		<stop class="stop1" offset="1" stop-opacity="1" stop-color="rgb(109,109,109)"/>
	</linearGradient>
	<linearGradient id="Gradient5" gradientUnits="userSpaceOnUse" x1="843.796" y1="722.691" x2="796.04" y2="620.385">
		<stop class="stop0" offset="0" stop-opacity="1" stop-color="rgb(137,137,136)"/>
		<stop class="stop1" offset="1" stop-opacity="1" stop-color="rgb(167,165,165)"/>
	</linearGradient>
	<linearGradient id="Gradient6" gradientUnits="userSpaceOnUse" x1="837.048" y1="550.968" x2="857.29" y2="523">
		<stop class="stop0" offset="0" stop-opacity="1" stop-color="rgb(94,93,93)"/>
		<stop class="stop1" offset="1" stop-opacity="1" stop-color="rgb(116,115,115)"/>
	</linearGradient>
	<linearGradient id="Gradient7" gradientUnits="userSpaceOnUse" x1="638.331" y1="640.762" x2="606.523" y2="647.335">
		<stop class="stop0" offset="0" stop-opacity="1" stop-color="rgb(56,56,56)"/>
		<stop class="stop1" offset="1" stop-opacity="1" stop-color="rgb(92,92,91)"/>
	</linearGradient>
	<linearGradient id="Gradient8" gradientUnits="userSpaceOnUse" x1="739.496" y1="624.062" x2="738.817" y2="554.137">
		<stop class="stop0" offset="0" stop-opacity="1" stop-color="rgb(0,0,0)"/>
		<stop class="stop1" offset="1" stop-opacity="1" stop-color="rgb(38,38,37)"/>
	</linearGradient>
	<linearGradient id="Gradient9" gradientUnits="userSpaceOnUse" x1="642.998" y1="704.996" x2="708.056" y2="474.479">
		<stop class="stop0" offset="0" stop-opacity="1" stop-color="rgb(69,69,69)"/>
		<stop class="stop1" offset="1" stop-opacity="1" stop-color="rgb(126,126,126)"/>
	</linearGradient>
	<linearGradient id="Gradient10" gradientUnits="userSpaceOnUse" x1="667.918" y1="743.554" x2="669.429" y2="610.076">
		<stop class="stop0" offset="0" stop-opacity="1" stop-color="rgb(47,46,46)"/>
		<stop class="stop1" offset="1" stop-opacity="1" stop-color="rgb(76,77,76)"/>
	</linearGradient>
	<linearGradient id="Gradient11" gradientUnits="userSpaceOnUse" x1="1022.53" y1="553.315" x2="1021.28" y2="587.87">
		<stop class="stop0" offset="0" stop-opacity="1" stop-color="rgb(34,34,33)"/>
		<stop class="stop1" offset="1" stop-opacity="1" stop-color="rgb(74,74,74)"/>
	</linearGradient>
	<linearGradient id="Gradient12" gradientUnits="userSpaceOnUse" x1="1010.64" y1="639.675" x2="1010.27" y2="679.469">
		<stop class="stop0" offset="0" stop-opacity="1" stop-color="rgb(33,33,33)"/>
		<stop class="stop1" offset="1" stop-opacity="1" stop-color="rgb(66,66,66)"/>
	</linearGradient>
	<linearGradient id="Gradient13" gradientUnits="userSpaceOnUse" x1="1135.06" y1="619.95" x2="1134.94" y2="593.096">
		<stop class="stop0" offset="0" stop-opacity="1" stop-color="rgb(38,38,38)"/>
		<stop class="stop1" offset="1" stop-opacity="1" stop-color="rgb(85,85,85)"/>
	</linearGradient>
	<linearGradient id="Gradient14" gradientUnits="userSpaceOnUse" x1="1013.92" y1="510.392" x2="1014.08" y2="523.608">
		<stop class="stop0" offset="0" stop-opacity="1" stop-color="rgb(116,115,115)"/>
		<stop class="stop1" offset="1" stop-opacity="1" stop-color="rgb(154,153,153)"/>
	</linearGradient>
	<linearGradient id="Gradient15" gradientUnits="userSpaceOnUse" x1="998.786" y1="743.499" x2="999.258" y2="699.427">
		<stop class="stop0" offset="0" stop-opacity="1" stop-color="rgb(25,23,23)"/>
		<stop class="stop1" offset="1" stop-opacity="1" stop-color="rgb(68,70,70)"/>
	</linearGradient>
	<linearGradient id="Gradient16" gradientUnits="userSpaceOnUse" x1="1157.96" y1="691.997" x2="1159.52" y2="671.808">
		<stop class="stop0" offset="0" stop-opacity="1" stop-color="rgb(123,123,123)"/>
		<stop class="stop1" offset="1" stop-opacity="1" stop-color="rgb(158,157,157)"/>
	</linearGradient>
	<linearGradient id="Gradient17" gradientUnits="userSpaceOnUse" x1="1133.81" y1="742.63" x2="1105.86" y2="772.488">
		<stop class="stop0" offset="0" stop-opacity="1" stop-color="rgb(50,45,45)"/>
		<stop class="stop1" offset="1" stop-opacity="1" stop-color="rgb(95,83,85)"/>
	</linearGradient>
	<linearGradient id="Gradient18" gradientUnits="userSpaceOnUse" x1="1174.42" y1="632.14" x2="1204.85" y2="635.429">
		<stop class="stop0" offset="0" stop-opacity="1" stop-color="rgb(0,0,0)"/>
		<stop class="stop1" offset="1" stop-opacity="1" stop-color="rgb(61,61,61)"/>
	</linearGradient>
	<linearGradient id="Gradient19" gradientUnits="userSpaceOnUse" x1="958.812" y1="771.116" x2="964.711" y2="515.912">
		<stop class="stop0" offset="0" stop-opacity="1" stop-color="rgb(28,19,19)"/>
		<stop class="stop1" offset="1" stop-opacity="1" stop-color="rgb(62,59,59)"/>
	</linearGradient>
	<linearGradient id="Gradient20" gradientUnits="userSpaceOnUse" x1="1108.61" y1="786.089" x2="1210.23" y2="559.522">
		<stop class="stop0" offset="0" stop-opacity="1" stop-color="rgb(32,14,13)"/>
		<stop class="stop1" offset="1" stop-opacity="1" stop-color="rgb(50,57,58)"/>
	</linearGradient>
	<linearGradient id="Gradient21" gradientUnits="userSpaceOnUse" x1="1500.67" y1="624.714" x2="1493.39" y2="623.784">
		<stop class="stop0" offset="0" stop-opacity="1" stop-color="rgb(112,112,112)"/>
		<stop class="stop1" offset="1" stop-opacity="1" stop-color="rgb(145,144,144)"/>
	</linearGradient>
	<linearGradient id="Gradient22" gradientUnits="userSpaceOnUse" x1="1326.47" y1="726.026" x2="1302.02" y2="747.764">
		<stop class="stop0" offset="0" stop-opacity="1" stop-color="rgb(103,94,94)"/>
		<stop class="stop1" offset="1" stop-opacity="1" stop-color="rgb(157,151,150)"/>
	</linearGradient>
	<linearGradient id="Gradient23" gradientUnits="userSpaceOnUse" x1="1320.83" y1="682.383" x2="1420.85" y2="478.683">
		<stop class="stop0" offset="0" stop-opacity="1" stop-color="rgb(85,85,85)"/>
		<stop class="stop1" offset="1" stop-opacity="1" stop-color="rgb(149,149,148)"/>
	</linearGradient>
	<linearGradient id="Gradient24" gradientUnits="userSpaceOnUse" x1="972.752" y1="766.325" x2="1053.8" y2="501.384">
		<stop class="stop0" offset="0" stop-opacity="1" stop-color="rgb(55,55,55)"/>
		<stop class="stop1" offset="1" stop-opacity="1" stop-color="rgb(105,105,106)"/>
	</linearGradient>
</defs>
<path transform="translate(0,0)" fill="rgb(222,46,50)" d="M 880.631 511.003 L 1029.37 510.816 C 1061.52 510.775 1131.6 505.898 1156.36 526.956 L 1157.19 527.502 C 1164.67 532.472 1172.38 545.34 1174.15 553.631 L 1175.22 554.198 C 1181.15 549.567 1184.98 541.305 1190.53 538.679 L 1193.94 536.39 C 1195.56 532.29 1206.9 517.061 1210.16 512.556 L 1211.17 510.761 C 1240.58 511.022 1269.99 511.07 1299.4 510.906 C 1295.48 538.275 1292.4 570.446 1287.76 596.963 C 1311.3 597.035 1334.85 596.842 1358.39 596.383 C 1365.35 581.005 1375.8 563.118 1388.75 552.22 C 1390.53 547.928 1392.6 544.242 1394.8 540.161 C 1398.47 534.131 1422.99 516.603 1429.99 511.381 C 1440.79 510.368 1459.71 510.856 1470.99 510.873 C 1484.09 510.894 1503.17 510.254 1515.85 511.301 L 1516.89 512.448 C 1516.81 513.621 1516.74 516.079 1516.52 517.111 L 1486.42 741.361 L 1485.57 741.851 C 1473.98 749.441 1459.04 753.309 1448.08 759.776 L 1444.84 761.45 C 1442.18 763.701 1439.48 766.025 1436.8 768.237 C 1443.09 773.107 1475.14 766.569 1482.68 771.58 C 1483.59 772.187 1482.75 778.868 1482.47 780.869 C 1482.07 785.006 1481.54 789.229 1481.59 793.37 L 1479.41 795.053 C 1470.84 797.925 1458.11 801.999 1449.95 805.834 L 1449.53 806.944 C 1447.79 811.121 1443.4 815.734 1440.02 819.306 C 1425.13 835.065 1409.57 855.096 1389 863.586 C 1383.32 865.932 1374.4 865.19 1368.52 866.598 C 1339.62 873.518 1311.77 871.241 1282.29 871.57 C 1265.87 871.755 1249.45 872.057 1233.03 872.474 C 1224.46 872.732 1217.76 874.196 1209.07 872.448 C 1205.27 872.42 1200.47 873.636 1196.73 873.513 C 1167.81 872.566 1138.55 874.663 1109.76 874.604 C 1083.31 874.551 1054.81 867.524 1027.89 869.48 C 955.173 874.763 882.511 877.14 809.585 874.997 C 783.948 874.244 756.705 870.533 731.217 871.494 C 696.684 872.795 662.241 872.461 627.68 872.594 C 587.302 873.762 546.76 874.642 506.458 871.389 C 488.907 869.972 468.164 856.3 465.03 837.914 C 463.276 827.622 463.998 817.319 462.783 806.966 C 462.029 799.114 456.994 783.89 458.016 776.85 L 457.304 772.013 C 454.372 753.134 460.814 728.328 464.773 709.879 C 469.401 688.309 476.242 667.536 486.207 647.882 C 488.481 643.397 488.393 638.252 492.068 634.608 C 491.313 633.741 490.503 633.422 489.498 632.894 L 490.326 631.285 L 492.217 631.202 C 492.48 630.267 492.773 629.342 493.095 628.426 C 500.601 606.803 511.834 593.705 532.212 583.747 C 545.06 498.599 630.385 510.93 695.065 510.937 L 846.356 510.84 L 847.567 511.324 C 851.221 518.789 854.809 526.286 858.332 533.814 C 858.107 536.596 857.061 553.146 856.346 554.682 L 855.916 564.367 C 862.294 559.292 866.038 556.339 873.086 552.076 C 876.727 538.864 878.439 524.626 880.631 511.003 z"/>
<path transform="translate(0,0)" fill="url(#Gradient24)" d="M 880.631 511.003 L 1029.37 510.816 C 1061.52 510.775 1131.6 505.898 1156.36 526.956 L 1157.19 527.502 C 1164.67 532.472 1172.38 545.34 1174.15 553.631 L 1175.22 554.198 C 1181.15 549.567 1184.98 541.305 1190.53 538.679 L 1193.94 536.39 C 1195.56 532.29 1206.9 517.061 1210.16 512.556 L 1211.17 510.761 C 1240.58 511.022 1269.99 511.07 1299.4 510.906 C 1295.48 538.275 1292.4 570.446 1287.76 596.963 C 1311.3 597.035 1334.85 596.842 1358.39 596.383 C 1365.35 581.005 1375.8 563.118 1388.75 552.22 C 1390.53 547.928 1392.6 544.242 1394.8 540.161 C 1398.47 534.131 1422.99 516.603 1429.99 511.381 C 1440.79 510.368 1459.71 510.856 1470.99 510.873 C 1484.09 510.894 1503.17 510.254 1515.85 511.301 L 1516.89 512.448 C 1516.81 513.621 1516.74 516.079 1516.52 517.111 L 1486.42 741.361 L 1485.57 741.851 C 1473.98 749.441 1459.04 753.309 1448.08 759.776 L 1444.84 761.45 C 1442.18 763.701 1439.48 766.025 1436.8 768.237 C 1427.85 774.693 1360.82 770.27 1344.01 770.501 L 1327.97 770.075 L 1308.64 769.768 C 1311.64 768.157 1315.23 767.012 1315.99 763.489 C 1319.73 746.138 1300.64 736.882 1288.7 732.272 C 1280.27 732.498 1276.56 731.181 1269.14 735.388 C 1267.12 738.279 1267.16 738.625 1266.37 742.161 L 1260.05 746.935 C 1254.42 750.936 1248.69 755.153 1242.85 758.809 L 1237.05 763.485 C 1233.77 765.852 1232.33 766.946 1229.37 769.791 C 1197.08 771.695 1162.62 769.82 1130.11 770.413 L 1086.46 770.283 L 926.742 771.018 L 877.648 771.119 C 871.192 771.127 857.629 771.483 851.66 770.873 C 844.872 768.155 830.922 768.422 823.687 769.105 C 825.837 765.638 828.006 762.537 829.242 758.65 L 828.418 757.861 L 848.16 619.828 L 842.216 612.225 C 840.868 609.299 840.756 609.125 840.424 605.964 C 842.535 599.738 847.494 595.619 852.137 590.82 C 852.429 590.161 853.758 575.306 854.369 572.059 C 854.59 568.507 854.085 566.922 855.916 564.367 C 862.294 559.292 866.038 556.339 873.086 552.076 C 876.727 538.864 878.439 524.626 880.631 511.003 z"/>
<path transform="translate(0,0)" fill="url(#Gradient23)" d="M 1211.17 510.761 C 1240.58 511.022 1269.99 511.07 1299.4 510.906 C 1295.48 538.275 1292.4 570.446 1287.76 596.963 C 1311.3 597.035 1334.85 596.842 1358.39 596.383 C 1365.35 581.005 1375.8 563.118 1388.75 552.22 C 1390.53 547.928 1392.6 544.242 1394.8 540.161 C 1398.47 534.131 1422.99 516.603 1429.99 511.381 C 1440.79 510.368 1459.71 510.856 1470.99 510.873 C 1484.09 510.894 1503.17 510.254 1515.85 511.301 L 1516.89 512.448 C 1516.81 513.621 1516.74 516.079 1516.52 517.111 L 1486.42 741.361 L 1485.57 741.851 C 1473.98 749.441 1459.04 753.309 1448.08 759.776 L 1444.84 761.45 C 1442.18 763.701 1439.48 766.025 1436.8 768.237 C 1427.85 774.693 1360.82 770.27 1344.01 770.501 L 1327.97 770.075 L 1308.64 769.768 C 1311.64 768.157 1315.23 767.012 1315.99 763.489 C 1319.73 746.138 1300.64 736.882 1288.7 732.272 C 1280.27 732.498 1276.56 731.181 1269.14 735.388 C 1267.12 738.279 1267.16 738.625 1266.37 742.161 L 1260.05 746.935 C 1254.42 750.936 1248.69 755.153 1242.85 758.809 L 1240.27 757.851 L 1234.77 757.266 L 1232.59 758.63 C 1226.7 757.242 1220.44 754.605 1214.53 752.695 C 1202.68 748.864 1193.81 749.074 1181.57 748.87 C 1177.85 747.119 1176.29 747.206 1174.56 744.185 L 1176.27 741.172 C 1177.04 739.229 1177.03 738.952 1178.41 737.307 L 1179.38 737.916 C 1184 737.023 1185.27 734.782 1188.31 731.119 C 1192.06 730.97 1195.79 730.498 1199.53 730.079 C 1196.07 729.993 1192.88 730.331 1190.01 728.643 C 1191.02 713.742 1195.08 692.065 1197.21 676.496 C 1198.65 665.924 1201.46 643.76 1203.71 634.7 C 1204.18 625.023 1207.51 605.917 1209 595.418 L 1219.91 518.681 L 1219.98 517.906 C 1217.94 516.608 1213.26 512.508 1211.17 510.761 z"/>
<path transform="translate(0,0)" fill="rgb(82,82,82)" d="M 1203.71 634.7 C 1205.34 632.832 1205.61 630.664 1206.19 628.32 C 1215.68 619.131 1257.57 637.701 1267.98 644.233 C 1269.99 648.885 1268.14 651.46 1269.21 654.655 C 1270.36 650.918 1270.81 646.979 1271.4 643.099 C 1274.19 646.931 1278.34 651.535 1278.05 656.267 C 1276.96 662.45 1276.27 668.083 1275.53 674.291 C 1273.64 683.869 1273.4 694.737 1271.28 703.884 L 1268.95 720.791 C 1276.57 720.696 1281.78 720.937 1289.33 721.496 C 1291.79 724.283 1295.16 727.318 1295.83 730.731 C 1293.88 732.759 1291.54 732.649 1288.7 732.272 C 1280.27 732.498 1276.56 731.181 1269.14 735.388 C 1267.12 738.279 1267.16 738.625 1266.37 742.161 L 1260.05 746.935 C 1254.42 750.936 1248.69 755.153 1242.85 758.809 L 1240.27 757.851 L 1234.77 757.266 L 1232.59 758.63 C 1226.7 757.242 1220.44 754.605 1214.53 752.695 C 1202.68 748.864 1193.81 749.074 1181.57 748.87 C 1177.85 747.119 1176.29 747.206 1174.56 744.185 L 1176.27 741.172 C 1177.04 739.229 1177.03 738.952 1178.41 737.307 L 1179.38 737.916 C 1184 737.023 1185.27 734.782 1188.31 731.119 C 1192.06 730.97 1195.79 730.498 1199.53 730.079 C 1196.07 729.993 1192.88 730.331 1190.01 728.643 C 1191.02 713.742 1195.08 692.065 1197.21 676.496 C 1198.65 665.924 1201.46 643.76 1203.71 634.7 z"/>
<path transform="translate(0,0)" fill="rgb(31,28,28)" d="M 1199.53 730.079 C 1216.38 730.536 1243.86 729.232 1259.08 730.909 L 1266.37 742.161 L 1260.05 746.935 C 1254.42 750.936 1248.69 755.153 1242.85 758.809 L 1240.27 757.851 L 1234.77 757.266 L 1232.59 758.63 C 1226.7 757.242 1220.44 754.605 1214.53 752.695 C 1202.68 748.864 1193.81 749.074 1181.57 748.87 C 1177.85 747.119 1176.29 747.206 1174.56 744.185 L 1176.27 741.172 C 1177.04 739.229 1177.03 738.952 1178.41 737.307 L 1179.38 737.916 C 1184 737.023 1185.27 734.782 1188.31 731.119 C 1192.06 730.97 1195.79 730.498 1199.53 730.079 z"/>
<path transform="translate(0,0)" fill="rgb(117,30,33)" d="M 1232.45 741.141 C 1238.49 741.175 1250.76 740.966 1256.19 741.605 L 1266.37 742.161 L 1260.05 746.935 C 1254.42 750.936 1248.69 755.153 1242.85 758.809 L 1240.27 757.851 L 1234.77 757.266 C 1230.05 754.61 1220.38 749.563 1221.56 743.787 C 1224.55 741.17 1228.24 741.477 1232.45 741.141 z"/>
<path transform="translate(0,0)" fill="rgb(106,27,30)" d="M 1232.45 741.141 C 1238.49 741.175 1250.76 740.966 1256.19 741.605 L 1259.86 743.316 C 1253.07 746.258 1238.24 741.729 1232.46 750.59 C 1232.83 754.899 1234.24 755.279 1238.16 756.769 L 1240.27 757.851 L 1234.77 757.266 C 1230.05 754.61 1220.38 749.563 1221.56 743.787 C 1224.55 741.17 1228.24 741.477 1232.45 741.141 z"/>
<path transform="translate(0,0)" fill="rgb(55,20,19)" d="M 1176.27 741.172 C 1194.1 740.036 1214.45 740.694 1232.45 741.141 C 1228.24 741.477 1224.55 741.17 1221.56 743.787 C 1220.38 749.563 1230.05 754.61 1234.77 757.266 L 1232.59 758.63 C 1226.7 757.242 1220.44 754.605 1214.53 752.695 C 1202.68 748.864 1193.81 749.074 1181.57 748.87 C 1177.85 747.119 1176.29 747.206 1174.56 744.185 L 1176.27 741.172 z"/>
<path transform="translate(0,0)" fill="rgb(138,138,138)" d="M 1271.4 643.099 C 1274.19 646.931 1278.34 651.535 1278.05 656.267 C 1276.96 662.45 1276.27 668.083 1275.53 674.291 C 1273.64 683.869 1273.4 694.737 1271.28 703.884 L 1268.95 720.791 C 1276.57 720.696 1281.78 720.937 1289.33 721.496 C 1291.79 724.283 1295.16 727.318 1295.83 730.731 C 1293.88 732.759 1291.54 732.649 1288.7 732.272 C 1280.27 732.498 1276.56 731.181 1269.14 735.388 C 1267.12 738.279 1267.16 738.625 1266.37 742.161 L 1259.08 730.909 C 1262.42 710.472 1267.77 674.943 1269.21 654.655 C 1270.36 650.918 1270.81 646.979 1271.4 643.099 z"/>
<path transform="translate(0,0)" fill="rgb(60,53,53)" d="M 1275.53 674.291 C 1280.05 677.735 1364.68 675.757 1376.75 675.887 C 1372.82 702.465 1370.46 734.746 1365.58 760.088 C 1387.87 762.253 1410.81 759.746 1432.62 763.26 C 1439.69 764.397 1438.18 761.645 1444.84 761.45 C 1442.18 763.701 1439.48 766.025 1436.8 768.237 C 1427.85 774.693 1360.82 770.27 1344.01 770.501 L 1327.97 770.075 L 1308.64 769.768 C 1311.64 768.157 1315.23 767.012 1315.99 763.489 C 1319.73 746.138 1300.64 736.882 1288.7 732.272 C 1291.54 732.649 1293.88 732.759 1295.83 730.731 C 1295.16 727.318 1291.79 724.283 1289.33 721.496 C 1281.78 720.937 1276.57 720.696 1268.95 720.791 L 1271.28 703.884 C 1273.4 694.737 1273.64 683.869 1275.53 674.291 z"/>
<path transform="translate(0,0)" fill="rgb(104,99,99)" d="M 1268.95 720.791 L 1271.28 703.884 L 1272.26 707.062 C 1281.57 710.32 1319.98 705.381 1327.79 712.36 C 1325.99 713.606 1324.55 714.657 1322.82 715.997 C 1323.21 717.773 1326.33 720.437 1327.55 721.066 C 1335.28 725.031 1335.97 727.933 1339.84 735.828 C 1340.31 733.284 1340.15 733.256 1339.52 730.846 C 1340.61 731.705 1341.63 732.508 1342.68 733.409 L 1343.05 726.655 C 1345.38 732.573 1345.47 734.707 1346.39 740.994 L 1346.51 739.411 C 1347.99 754.006 1345.16 757.875 1344.01 770.501 L 1327.97 770.075 L 1308.64 769.768 C 1311.64 768.157 1315.23 767.012 1315.99 763.489 C 1319.73 746.138 1300.64 736.882 1288.7 732.272 C 1291.54 732.649 1293.88 732.759 1295.83 730.731 C 1295.16 727.318 1291.79 724.283 1289.33 721.496 C 1281.78 720.937 1276.57 720.696 1268.95 720.791 z"/>
<path transform="translate(0,0)" fill="url(#Gradient22)" d="M 1289.33 721.496 C 1334.17 716.455 1341.12 729.474 1327.97 770.075 L 1308.64 769.768 C 1311.64 768.157 1315.23 767.012 1315.99 763.489 C 1319.73 746.138 1300.64 736.882 1288.7 732.272 C 1291.54 732.649 1293.88 732.759 1295.83 730.731 C 1295.16 727.318 1291.79 724.283 1289.33 721.496 z"/>
<path transform="translate(0,0)" fill="rgb(10,8,8)" d="M 1278.05 656.267 C 1281.34 653.474 1340.31 653.548 1349.05 653.515 C 1368.29 653.441 1391.41 652.211 1410.38 653.231 C 1407.57 666.901 1404.55 690.607 1403.06 704.723 C 1396 715.172 1402.49 732.906 1393.66 744.028 C 1395.03 743.554 1394.85 743.797 1395.9 742.924 C 1401.63 744.224 1417.79 746.429 1421.89 748.149 C 1432.97 752.799 1428.7 758.65 1443.9 758.384 C 1445.83 758.883 1446.26 758.882 1448.08 759.776 L 1444.84 761.45 C 1438.18 761.645 1439.69 764.397 1432.62 763.26 C 1410.81 759.746 1387.87 762.253 1365.58 760.088 C 1370.46 734.746 1372.82 702.465 1376.75 675.887 C 1364.68 675.757 1280.05 677.735 1275.53 674.291 C 1276.27 668.083 1276.96 662.45 1278.05 656.267 z"/>
<path transform="translate(0,0)" fill="rgb(120,119,120)" d="M 1211.17 510.761 C 1240.58 511.022 1269.99 511.07 1299.4 510.906 C 1295.48 538.275 1292.4 570.446 1287.76 596.963 C 1311.3 597.035 1334.85 596.842 1358.39 596.383 C 1365.35 581.005 1375.8 563.118 1388.75 552.22 C 1390.53 547.928 1392.6 544.242 1394.8 540.161 C 1398.47 534.131 1422.99 516.603 1429.99 511.381 L 1430.75 511.812 C 1425.84 538.367 1423.22 570.053 1418.88 597.693 C 1420.44 598.834 1422.88 600.495 1424.28 601.721 L 1427.79 604.764 C 1422.12 605.681 1389.51 605.119 1382.34 605.106 L 1277.66 605.031 C 1280.11 595.511 1281.8 579.408 1283.03 569.366 L 1289.43 518.604 L 1219.91 518.681 L 1219.98 517.906 C 1217.94 516.608 1213.26 512.508 1211.17 510.761 z"/>
<path transform="translate(0,0)" fill="rgb(82,82,82)" d="M 1429.99 511.381 L 1430.75 511.812 C 1425.84 538.367 1423.22 570.053 1418.88 597.693 C 1407 597.911 1388.6 598.382 1376.96 596.955 L 1375.84 595.903 C 1379.05 582.21 1387.64 565.924 1388.75 552.22 C 1390.53 547.928 1392.6 544.242 1394.8 540.161 C 1398.47 534.131 1422.99 516.603 1429.99 511.381 z"/>
<path transform="translate(0,0)" fill="rgb(60,53,53)" d="M 1394.8 540.161 C 1395.36 540.779 1395.93 541.397 1396.5 542.015 C 1398.36 558.079 1402.29 580.667 1403.75 596.187 C 1394.34 597.822 1385.1 595.832 1376.96 596.955 L 1375.84 595.903 C 1379.05 582.21 1387.64 565.924 1388.75 552.22 C 1390.53 547.928 1392.6 544.242 1394.8 540.161 z"/>
<path transform="translate(0,0)" fill="rgb(193,192,191)" d="M 1219.98 517.906 C 1237.95 514.072 1280.68 522.147 1294.66 514.118 L 1295.43 514.645 C 1293.15 517.09 1291.53 518.719 1291.16 522.197 C 1288.6 546.402 1283.43 572.249 1282.35 596.475 C 1283.81 597.556 1283.95 597.375 1285.81 597.544 C 1285.14 599.839 1284.37 599.871 1282.25 601.795 C 1284.47 604.086 1413.08 601.703 1424.28 601.721 L 1427.79 604.764 C 1422.12 605.681 1389.51 605.119 1382.34 605.106 L 1277.66 605.031 C 1280.11 595.511 1281.8 579.408 1283.03 569.366 L 1289.43 518.604 L 1219.91 518.681 L 1219.98 517.906 z"/>
<path transform="translate(0,0)" fill="rgb(31,28,28)" d="M 1395.9 742.924 C 1394.85 743.797 1395.03 743.554 1393.66 744.028 C 1402.49 732.906 1396 715.172 1403.06 704.723 C 1402.65 714.778 1400.21 730.335 1398.43 740.474 C 1402.23 737.452 1405.93 734.706 1409.22 731.13 L 1453.5 731.117 C 1459.44 731.129 1473.28 731.485 1478.55 730.708 L 1480.63 731.084 C 1482.51 734.536 1484.44 737.962 1486.42 741.361 L 1485.57 741.851 C 1473.98 749.441 1459.04 753.309 1448.08 759.776 C 1446.26 758.882 1445.83 758.883 1443.9 758.384 C 1428.7 758.65 1432.97 752.799 1421.89 748.149 C 1417.79 746.429 1401.63 744.224 1395.9 742.924 z"/>
<path transform="translate(0,0)" fill="rgb(104,99,99)" d="M 1450.92 741.145 C 1461.29 741.136 1475.59 740.74 1485.57 741.851 C 1473.98 749.441 1459.04 753.309 1448.08 759.776 C 1446.26 758.882 1445.83 758.883 1443.9 758.384 C 1439.91 755.387 1439.51 755.417 1440.11 750.703 C 1442.22 746.99 1447.33 743.779 1450.92 741.145 z"/>
<path transform="translate(0,0)" fill="rgb(55,20,19)" d="M 1395.9 742.924 C 1404.8 737.041 1439.6 740.102 1450.92 741.145 C 1447.33 743.779 1442.22 746.99 1440.11 750.703 C 1439.51 755.417 1439.91 755.387 1443.9 758.384 C 1428.7 758.65 1432.97 752.799 1421.89 748.149 C 1417.79 746.429 1401.63 744.224 1395.9 742.924 z"/>
<path transform="translate(0,0)" fill="url(#Gradient21)" d="M 1512.27 514.787 L 1515.55 513.727 L 1516.52 517.111 L 1486.42 741.361 C 1484.44 737.962 1482.51 734.536 1480.63 731.084 C 1482.67 712.177 1496.34 587.499 1501.3 578.326 C 1501.87 577.281 1500.89 576.08 1501.68 574.264 C 1505.44 561.438 1505.74 522.52 1512.27 514.787 z"/>
<path transform="translate(0,0)" fill="rgb(31,28,28)" d="M 1271.4 643.099 C 1314.13 641.739 1357.11 642.881 1399.86 642.8 C 1406.92 642.787 1413.91 642.834 1420.96 643.302 C 1419.05 645.986 1413.06 651.5 1410.38 653.231 C 1391.41 652.211 1368.29 653.441 1349.05 653.515 C 1340.31 653.548 1281.34 653.474 1278.05 656.267 C 1278.34 651.535 1274.19 646.931 1271.4 643.099 z"/>
<path transform="translate(0,0)" fill="rgb(60,53,53)" d="M 1420.96 643.302 C 1419.58 665.003 1414.1 699.504 1410.84 721.788 C 1417.6 727.641 1422.56 719.581 1429.5 726.073 C 1428.75 726.999 1427.99 727.92 1427.23 728.836 C 1433.21 729.447 1452.87 728.018 1455.68 729.848 C 1459.37 729.885 1476.31 729.857 1478.55 730.708 C 1473.28 731.485 1459.44 731.129 1453.5 731.117 L 1409.22 731.13 C 1405.93 734.706 1402.23 737.452 1398.43 740.474 C 1400.21 730.335 1402.65 714.778 1403.06 704.723 C 1404.55 690.607 1407.57 666.901 1410.38 653.231 C 1413.06 651.5 1419.05 645.986 1420.96 643.302 z"/>
<path transform="translate(0,0)" fill="rgb(82,82,82)" d="M 1410.84 721.788 C 1417.6 727.641 1422.56 719.581 1429.5 726.073 C 1428.75 726.999 1427.99 727.92 1427.23 728.836 C 1433.21 729.447 1452.87 728.018 1455.68 729.848 C 1448.36 730.457 1418.2 730.375 1411.08 729.692 C 1409.75 727.113 1410.54 725.142 1410.84 721.788 z"/>
<path transform="translate(0,0)" fill="rgb(60,53,53)" d="M 1430.75 511.812 L 1439.19 518.02 L 1431.97 573.942 C 1430.87 582.496 1429.57 596.927 1427.79 604.764 L 1424.28 601.721 C 1422.88 600.495 1420.44 598.834 1418.88 597.693 C 1423.22 570.053 1425.84 538.367 1430.75 511.812 z"/>
<path transform="translate(0,0)" fill="rgb(138,138,138)" d="M 1429.99 511.381 C 1440.79 510.368 1459.71 510.856 1470.99 510.873 C 1484.09 510.894 1503.17 510.254 1515.85 511.301 L 1516.89 512.448 C 1516.81 513.621 1516.74 516.079 1516.52 517.111 L 1515.55 513.727 L 1512.27 514.787 C 1500.45 520.291 1447.52 513.296 1439.19 518.02 L 1430.75 511.812 L 1429.99 511.381 z"/>
<path transform="translate(0,0)" fill="rgb(205,204,204)" d="M 1439.19 518.02 C 1447.52 513.296 1500.45 520.291 1512.27 514.787 C 1505.74 522.52 1505.44 561.438 1501.68 574.264 C 1500.62 567.343 1507.23 527.932 1508.29 518.948 C 1498.51 518.839 1444.7 520.213 1439.19 518.02 z"/>
<path transform="translate(0,0)" fill="url(#Gradient20)" d="M 1210.16 512.556 L 1211.17 510.761 C 1213.26 512.508 1217.94 516.608 1219.98 517.906 L 1219.91 518.681 L 1209 595.418 C 1207.51 605.917 1204.18 625.023 1203.71 634.7 C 1201.46 643.76 1198.65 665.924 1197.21 676.496 C 1195.08 692.065 1191.02 713.742 1190.01 728.643 C 1192.88 730.331 1196.07 729.993 1199.53 730.079 C 1195.79 730.498 1192.06 730.97 1188.31 731.119 C 1185.27 734.782 1184 737.023 1179.38 737.916 L 1178.41 737.307 C 1177.03 738.952 1177.04 739.229 1176.27 741.172 L 1174.56 744.185 C 1176.29 747.206 1177.85 747.119 1181.57 748.87 C 1193.81 749.074 1202.68 748.864 1214.53 752.695 C 1220.44 754.605 1226.7 757.242 1232.59 758.63 L 1234.77 757.266 L 1240.27 757.851 L 1242.85 758.809 L 1237.05 763.485 C 1233.77 765.852 1232.33 766.946 1229.37 769.791 C 1197.08 771.695 1162.62 769.82 1130.11 770.413 L 1086.46 770.283 L 926.742 771.018 L 877.648 771.119 C 871.192 771.127 857.629 771.483 851.66 770.873 C 844.872 768.155 830.922 768.422 823.687 769.105 C 825.837 765.638 828.006 762.537 829.242 758.65 L 828.418 757.861 L 848.16 619.828 L 842.216 612.225 C 840.868 609.299 840.756 609.125 840.424 605.964 C 842.535 599.738 847.494 595.619 852.137 590.82 C 852.429 590.161 853.758 575.306 854.369 572.059 C 854.59 568.507 854.085 566.922 855.916 564.367 C 862.294 559.292 866.038 556.339 873.086 552.076 C 876.727 538.864 878.439 524.626 880.631 511.003 C 883.738 513.752 884.867 515.399 887.302 518.637 C 880.011 564.344 872.253 609.975 864.029 655.523 C 860.642 677.019 856.251 711.937 851.458 732.233 C 849.233 736.295 848.035 737.878 845.253 741.514 C 869.52 744.925 912.355 744.621 937.597 743.33 C 984.953 740.908 1031.98 741.453 1079.46 741.305 C 1088.97 741.276 1114.89 733.793 1119.26 734.661 C 1129.13 729.95 1143.12 722.552 1149.26 713.426 C 1152.73 709.202 1153.84 707.829 1156.41 703.05 C 1148.77 694.379 1154.61 681.649 1156.07 670.385 C 1157.9 669.938 1159.96 669.952 1161.86 669.868 C 1162.73 667.449 1162.78 667.24 1164.32 665.151 L 1164.66 664.689 L 1162.95 653.452 C 1158.55 642.771 1155.26 638.241 1146.19 631.267 C 1152.71 624.962 1167.35 606.38 1163.97 596.958 C 1167.47 590.591 1169.25 587.599 1171.5 580.588 C 1171.97 568.047 1184.22 551.788 1191.12 540.295 L 1190.53 538.679 L 1193.94 536.39 C 1195.56 532.29 1206.9 517.061 1210.16 512.556 z"/>
<path transform="translate(0,0)" fill="url(#Gradient19)" d="M 880.631 511.003 C 883.738 513.752 884.867 515.399 887.302 518.637 C 880.011 564.344 872.253 609.975 864.029 655.523 C 860.642 677.019 856.251 711.937 851.458 732.233 C 849.233 736.295 848.035 737.878 845.253 741.514 L 843.757 741.678 L 843.407 745.755 L 844.94 747.114 C 865.017 749.279 885.22 748.356 905.42 748.493 C 938.851 748.718 972.576 748.094 1005.99 748.616 C 1018.1 748.817 1030.2 749.288 1042.29 750.028 C 1052.51 750.667 1071.2 752.65 1080.45 751.061 C 1087.7 757.222 1092.27 753.2 1101.01 753.67 C 1104.25 753.825 1107.01 753.702 1110.23 753.577 C 1102.51 759.772 1093.05 764.612 1086.46 770.283 L 926.742 771.018 L 877.648 771.119 C 871.192 771.127 857.629 771.483 851.66 770.873 C 844.872 768.155 830.922 768.422 823.687 769.105 C 825.837 765.638 828.006 762.537 829.242 758.65 L 828.418 757.861 L 848.16 619.828 L 842.216 612.225 C 840.868 609.299 840.756 609.125 840.424 605.964 C 842.535 599.738 847.494 595.619 852.137 590.82 C 852.429 590.161 853.758 575.306 854.369 572.059 C 854.59 568.507 854.085 566.922 855.916 564.367 C 862.294 559.292 866.038 556.339 873.086 552.076 C 876.727 538.864 878.439 524.626 880.631 511.003 z"/>
<path transform="translate(0,0)" fill="rgb(10,8,8)" d="M 844.94 747.114 C 865.017 749.279 885.22 748.356 905.42 748.493 C 938.851 748.718 972.576 748.094 1005.99 748.616 C 1018.1 748.817 1030.2 749.288 1042.29 750.028 C 1052.51 750.667 1071.2 752.65 1080.45 751.061 C 1087.7 757.222 1092.27 753.2 1101.01 753.67 C 1097.87 753.794 1093.4 754.76 1090.19 755.354 C 1051.81 762.47 1011.11 760.314 972.04 760.283 L 853.573 759.936 L 844.94 747.114 z"/>
<path transform="translate(0,0)" fill="rgb(60,53,53)" d="M 843.757 741.678 C 844.806 735.857 848.895 718.194 851.125 712.878 C 857.978 696.542 856.489 685.999 858.802 668.996 L 858.899 674.091 C 859.815 669.011 860.841 658.707 864.029 655.523 C 860.642 677.019 856.251 711.937 851.458 732.233 C 849.233 736.295 848.035 737.878 845.253 741.514 L 843.757 741.678 z"/>
<path transform="translate(0,0)" fill="url(#Gradient18)" d="M 1210.16 512.556 L 1211.17 510.761 C 1213.26 512.508 1217.94 516.608 1219.98 517.906 L 1219.91 518.681 L 1209 595.418 C 1207.51 605.917 1204.18 625.023 1203.71 634.7 C 1201.46 643.76 1198.65 665.924 1197.21 676.496 C 1195.08 692.065 1191.02 713.742 1190.01 728.643 C 1192.88 730.331 1196.07 729.993 1199.53 730.079 C 1195.79 730.498 1192.06 730.97 1188.31 731.119 C 1185.27 734.782 1184 737.023 1179.38 737.916 L 1178.41 737.307 C 1177.03 738.952 1177.04 739.229 1176.27 741.172 L 1174.56 744.185 C 1176.29 747.206 1177.85 747.119 1181.57 748.87 C 1171.65 749.221 1171.96 750.46 1163.19 752.667 L 1161.99 751.416 L 1162.18 745.594 C 1163.19 744.091 1165.47 717.21 1166.54 712.457 C 1175.55 672.47 1180.96 632.203 1187.08 591.731 C 1188.15 584.676 1189.96 578.378 1190.23 571.218 C 1189.58 568.543 1191.84 548.606 1191.12 540.295 L 1190.53 538.679 L 1193.94 536.39 C 1195.56 532.29 1206.9 517.061 1210.16 512.556 z"/>
<path transform="translate(0,0)" fill="rgb(120,119,120)" d="M 1210.16 512.556 C 1209.67 519.575 1207.97 529.194 1207.78 535.316 C 1209.19 542.389 1205.52 572.851 1198.64 577.26 C 1194.97 577.411 1195.18 576.83 1191.68 574.939 L 1190.23 571.218 C 1189.58 568.543 1191.84 548.606 1191.12 540.295 L 1190.53 538.679 L 1193.94 536.39 C 1195.56 532.29 1206.9 517.061 1210.16 512.556 z"/>
<path transform="translate(0,0)" fill="rgb(60,53,53)" d="M 1207.78 535.316 C 1209.19 542.389 1205.52 572.851 1198.64 577.26 C 1194.97 577.411 1195.18 576.83 1191.68 574.939 L 1190.23 571.218 C 1189.58 568.543 1191.84 548.606 1191.12 540.295 L 1190.53 538.679 L 1193.94 536.39 C 1196.35 542.119 1194.22 559.05 1201.41 562.982 C 1205.94 558.417 1205.48 542.476 1207.78 535.316 z"/>
<path transform="translate(0,0)" fill="rgb(31,28,28)" d="M 845.253 741.514 C 869.52 744.925 912.355 744.621 937.597 743.33 C 984.953 740.908 1031.98 741.453 1079.46 741.305 C 1088.97 741.276 1114.89 733.793 1119.26 734.661 C 1076.98 749.597 1015.67 742.766 970.322 744.423 C 959.826 744.806 948.332 743.841 937.732 744.876 C 952.163 744.904 1075.5 748.375 1080.45 751.061 C 1071.2 752.65 1052.51 750.667 1042.29 750.028 C 1030.2 749.288 1018.1 748.817 1005.99 748.616 C 972.576 748.094 938.851 748.718 905.42 748.493 C 885.22 748.356 865.017 749.279 844.94 747.114 L 843.407 745.755 L 843.757 741.678 L 845.253 741.514 z"/>
<path transform="translate(0,0)" fill="url(#Gradient17)" d="M 1110.23 753.577 C 1114.59 750.271 1128.89 739.33 1133.65 739.753 C 1135.77 744.355 1131.13 764.028 1130.11 770.413 L 1086.46 770.283 C 1093.05 764.612 1102.51 759.772 1110.23 753.577 z"/>
<path transform="translate(0,0)" fill="rgb(10,8,8)" d="M 1159.73 758.907 C 1160.34 754.58 1161.34 749.915 1162.18 745.594 L 1161.99 751.416 L 1163.19 752.667 C 1171.96 750.46 1171.65 749.221 1181.57 748.87 C 1193.81 749.074 1202.68 748.864 1214.53 752.695 C 1220.44 754.605 1226.7 757.242 1232.59 758.63 C 1228.64 761.43 1169.28 759.23 1159.73 758.907 z"/>
<path transform="translate(0,0)" fill="url(#Gradient16)" d="M 1156.07 670.385 C 1157.9 669.938 1159.96 669.952 1161.86 669.868 C 1162.73 667.449 1162.78 667.24 1164.32 665.151 L 1164.66 664.689 C 1165.17 678.528 1162.72 690.605 1156.41 703.05 C 1148.77 694.379 1154.61 681.649 1156.07 670.385 z"/>
<path transform="translate(0,0)" fill="url(#Gradient15)" d="M 851.458 732.233 C 868.3 731.407 891.812 731.968 908.949 731.975 L 1015.99 732.065 C 1055.55 732.094 1118.7 737.919 1144.91 702.585 L 1145.48 701.804 L 1147.02 701.931 C 1151.34 706.135 1148.66 710.629 1149.26 713.426 C 1143.12 722.552 1129.13 729.95 1119.26 734.661 C 1114.89 733.793 1088.97 741.276 1079.46 741.305 C 1031.98 741.453 984.953 740.908 937.597 743.33 C 912.355 744.621 869.52 744.925 845.253 741.514 C 848.035 737.878 849.233 736.295 851.458 732.233 z"/>
<path transform="translate(0,0)" fill="url(#Gradient14)" d="M 880.631 511.003 L 1029.37 510.816 C 1061.52 510.775 1131.6 505.898 1156.36 526.956 C 1156.26 527.979 1156.34 529.305 1156.36 530.361 C 1158.94 533.296 1164.37 539.09 1163.19 542.986 C 1156.93 533.751 1157.25 531.561 1146.65 527.187 C 1130.3 520.279 1112.66 516.966 1094.93 517.474 L 1094.47 518.676 C 1088.83 519.301 1074.57 518.934 1068.25 518.937 L 1017.28 518.937 C 976.717 518.926 927.233 520.259 887.302 518.637 C 884.867 515.399 883.738 513.752 880.631 511.003 z"/>
<path transform="translate(0,0)" fill="url(#Gradient13)" d="M 1106.72 619.561 C 1110.42 615.606 1127.54 611.75 1134.47 607.886 C 1144.87 602.08 1148.93 599.175 1157.29 590.382 L 1158.11 592.539 C 1160.12 593.926 1162.04 595.461 1163.97 596.958 C 1167.35 606.38 1152.71 624.962 1146.19 631.267 C 1137.71 627.025 1132.94 625.419 1124.08 622.534 C 1119.4 621.259 1111.74 620.32 1106.72 619.561 z"/>
<path transform="translate(0,0)" fill="rgb(10,8,8)" d="M 1163.97 596.958 C 1167.35 606.38 1152.71 624.962 1146.19 631.267 C 1137.71 627.025 1132.94 625.419 1124.08 622.534 C 1126.01 621.203 1130.83 620.334 1133.4 619.364 C 1147.89 613.89 1155.41 609.861 1163.97 596.958 z"/>
<path transform="translate(0,0)" fill="rgb(193,192,191)" d="M 1094.47 518.676 L 1094.93 517.474 C 1112.66 516.966 1130.3 520.279 1146.65 527.187 C 1157.25 531.561 1156.93 533.751 1163.19 542.986 C 1164.37 539.09 1158.94 533.296 1156.36 530.361 C 1156.34 529.305 1156.26 527.979 1156.36 526.956 L 1157.19 527.502 C 1164.67 532.472 1172.38 545.34 1174.15 553.631 L 1175.22 554.198 C 1181.15 549.567 1184.98 541.305 1190.53 538.679 L 1191.12 540.295 C 1184.22 551.788 1171.97 568.047 1171.5 580.588 C 1167.35 580.576 1167.09 581.305 1164.37 579.098 C 1163.19 574.663 1164.36 567.867 1164.47 563.088 C 1165.28 526.258 1122.78 518.944 1094.47 518.676 z"/>
<path transform="translate(0,0)" fill="rgb(205,204,204)" d="M 1106.72 619.561 C 1111.74 620.32 1119.4 621.259 1124.08 622.534 C 1132.94 625.419 1137.71 627.025 1146.19 631.267 C 1155.26 638.241 1158.55 642.771 1162.95 653.452 L 1164.66 664.689 L 1164.32 665.151 C 1162.78 667.24 1162.73 667.449 1161.86 669.868 C 1159.96 669.952 1157.9 669.938 1156.07 670.385 L 1156.03 663.362 C 1155.62 660.94 1155.47 658.648 1155.26 656.205 C 1150.82 644.184 1144.91 639.053 1133.98 633.175 C 1126.89 630.402 1110.58 626.389 1106.43 621.683 L 1106.72 619.561 z"/>
<path transform="translate(0,0)" fill="rgb(193,192,191)" d="M 1162.95 653.452 L 1164.66 664.689 L 1164.32 665.151 C 1162.78 667.24 1162.73 667.449 1161.86 669.868 C 1159.96 669.952 1157.9 669.938 1156.07 670.385 L 1156.03 663.362 C 1158.73 659.846 1160.55 657.191 1162.95 653.452 z"/>
<path transform="translate(0,0)" fill="rgb(254,254,254)" d="M 1133.98 633.175 C 1144.75 631.485 1157.45 645.483 1155.26 656.205 C 1150.82 644.184 1144.91 639.053 1133.98 633.175 z"/>
<path transform="translate(0,0)" fill="rgb(10,8,8)" d="M 944.469 641.729 L 944.289 640.135 C 949.69 636.909 1038.91 640.392 1051.16 639.261 C 1074.95 637.065 1087.96 670.305 1071.19 680.112 C 1067.82 680.195 1068.15 680.216 1065.72 677.568 C 1062.92 680.147 1061.53 681.667 1058.01 683.329 L 1056.01 684.421 C 1059.39 685.352 1059.51 685.776 1061.94 688.525 L 1062.05 690.242 C 1054.13 694.797 1028.86 696.045 1019.89 695.244 C 1007.97 694.181 942.045 697.175 936.804 694.329 C 938.902 679.874 941.388 654.81 944.469 641.729 z"/>
<path transform="translate(0,0)" fill="url(#Gradient12)" d="M 944.469 641.729 L 944.289 640.135 C 949.69 636.909 1038.91 640.392 1051.16 639.261 C 1074.95 637.065 1087.96 670.305 1071.19 680.112 C 1067.82 680.195 1068.15 680.216 1065.72 677.568 C 1072.94 662.188 1066.71 650.277 1049.44 650.52 C 1018.38 650.958 983.588 648.162 952.915 649.718 L 951.414 658.106 C 951.433 649.157 950.456 648.957 944.469 641.729 z"/>
<path transform="translate(0,0)" fill="rgb(120,119,120)" d="M 936.804 694.329 C 938.902 679.874 941.388 654.81 944.469 641.729 C 950.456 648.957 951.433 649.157 951.414 658.106 C 951.11 659.507 950.244 663.116 950.144 664.347 C 953.397 670.821 950.09 678.713 951.951 686.216 C 953.438 686.67 953.603 686.789 955.142 686.974 C 969.427 688.226 1043.42 687.787 1056.01 684.421 C 1059.39 685.352 1059.51 685.776 1061.94 688.525 L 1062.05 690.242 C 1054.13 694.797 1028.86 696.045 1019.89 695.244 C 1007.97 694.181 942.045 697.175 936.804 694.329 z"/>
<path transform="translate(0,0)" fill="rgb(193,192,191)" d="M 936.804 694.329 C 938.902 679.874 941.388 654.81 944.469 641.729 C 950.456 648.957 951.433 649.157 951.414 658.106 C 951.11 659.507 950.244 663.116 950.144 664.347 C 948.338 669.922 946.889 681.564 946.247 687.738 L 936.804 694.329 z"/>
<path transform="translate(0,0)" fill="rgb(31,28,28)" d="M 957.894 672.411 C 975.891 671.256 1036.99 669.927 1050.5 675.584 C 1054.59 677.297 1056.31 679.291 1058.01 683.329 L 1056.01 684.421 C 1043.42 687.787 969.427 688.226 955.142 686.974 C 956.137 684.692 957.412 675.425 957.894 672.411 z"/>
<path transform="translate(0,0)" fill="rgb(10,8,8)" d="M 958.09 556.115 L 958.686 554.502 C 963.865 553.021 979.593 553.392 985.516 553.544 C 1011.66 554.215 1038.07 552.359 1064.15 553.66 C 1086.33 554.765 1092.54 573.235 1082.1 591.332 L 1075.38 588.994 C 1073.16 591.16 1070.96 593.349 1068.79 595.561 L 1064.33 597.1 L 1057.43 599.039 C 1066.35 599.052 1063.72 600.828 1070.01 603.443 C 1064.59 605.499 1063.01 605.811 1057.25 606.731 L 1048.27 607.136 C 1040.64 608.528 955.078 608.661 949.473 606.87 C 951.66 596.819 955.439 562.822 958.09 556.115 z"/>
<path transform="translate(0,0)" fill="url(#Gradient11)" d="M 958.09 556.115 L 958.686 554.502 C 963.865 553.021 979.593 553.392 985.516 553.544 C 1011.66 554.215 1038.07 552.359 1064.15 553.66 C 1086.33 554.765 1092.54 573.235 1082.1 591.332 L 1075.38 588.994 C 1080.4 578.487 1078.36 565.951 1065.07 564.093 C 1055.81 562.922 1046.04 563.179 1036.68 563.428 C 1012.36 564.075 987.945 563.104 963.648 563.401 C 961.85 561.884 959.554 558.209 958.09 556.115 z"/>
<path transform="translate(0,0)" fill="rgb(120,119,120)" d="M 949.473 606.87 C 951.66 596.819 955.439 562.822 958.09 556.115 C 959.554 558.209 961.85 561.884 963.648 563.401 C 963.601 568.745 963.485 572.098 962.841 577.383 C 963.344 586.287 963.47 590.889 962.796 599.773 C 994.344 599.895 1025.89 599.651 1057.43 599.039 C 1066.35 599.052 1063.72 600.828 1070.01 603.443 C 1064.59 605.499 1063.01 605.811 1057.25 606.731 L 1048.27 607.136 C 1040.64 608.528 955.078 608.661 949.473 606.87 z"/>
<path transform="translate(0,0)" fill="rgb(193,192,191)" d="M 949.473 606.87 C 951.66 596.819 955.439 562.822 958.09 556.115 C 959.554 558.209 961.85 561.884 963.648 563.401 C 963.601 568.745 963.485 572.098 962.841 577.383 C 960.819 585.505 960.176 591.577 959.197 599.842 C 956.15 602.034 952.365 604.598 949.473 606.87 z"/>
<path transform="translate(0,0)" fill="rgb(138,138,138)" d="M 1048.27 607.136 C 1035.66 606.81 996.897 607.652 986.789 606.211 C 995.698 604.072 1046.76 604.367 1057.25 606.731 L 1048.27 607.136 z"/>
<path transform="translate(0,0)" fill="rgb(31,28,28)" d="M 962.796 599.773 C 964.532 599.399 966.139 598.915 967.841 598.425 C 969.077 596.084 969.725 594.266 971.844 592.722 C 987.319 591.099 1054.58 589.546 1064.33 597.1 L 1057.43 599.039 C 1025.89 599.651 994.344 599.895 962.796 599.773 z"/>
<path transform="translate(0,0)" fill="rgb(82,82,82)" d="M 1075.38 588.994 L 1082.1 591.332 C 1081.02 592.876 1079.46 594.857 1078.81 596.522 C 1077.93 599.327 1074.98 600.995 1072.37 602.352 C 1071.6 602.745 1070.81 603.109 1070.01 603.443 C 1063.72 600.828 1066.35 599.052 1057.43 599.039 L 1064.33 597.1 L 1068.79 595.561 C 1070.96 593.349 1073.16 591.16 1075.38 588.994 z"/>
<path transform="translate(0,0)" fill="rgb(104,99,99)" d="M 1064.33 597.1 L 1068.79 595.561 L 1068.15 599.682 L 1070.13 600.641 C 1073.88 599.143 1075.3 598.486 1078.81 596.522 C 1077.93 599.327 1074.98 600.995 1072.37 602.352 C 1071.6 602.745 1070.81 603.109 1070.01 603.443 C 1063.72 600.828 1066.35 599.052 1057.43 599.039 L 1064.33 597.1 z"/>
<path transform="translate(0,0)" fill="url(#Gradient10)" d="M 846.356 510.84 L 847.567 511.324 C 851.221 518.789 854.809 526.286 858.332 533.814 C 858.107 536.596 857.061 553.146 856.346 554.682 L 855.916 564.367 C 854.085 566.922 854.59 568.507 854.369 572.059 C 853.758 575.306 852.429 590.161 852.137 590.82 C 847.494 595.619 842.535 599.738 840.424 605.964 C 840.756 609.125 840.868 609.299 842.216 612.225 L 848.16 619.828 L 828.418 757.861 L 829.242 758.65 C 828.006 762.537 825.837 765.638 823.687 769.105 C 830.922 768.422 844.872 768.155 851.66 770.873 C 843.263 771.29 833.739 771.095 825.299 770.99 C 769.477 770.298 713.176 772.137 657.401 770.956 C 648.363 769.377 630.083 769.211 619.867 768.279 C 620.302 763.832 619.204 764.032 619.195 761.177 L 624.493 760.035 C 616.102 760.04 611.441 759.652 603.147 758.688 C 585.692 759.635 563.787 746.107 549.201 737.437 C 533.595 731.081 522.265 715.695 519.067 699.392 C 511.586 674.168 525.529 641.188 525.439 620.09 C 526.83 612.215 528.272 604.349 529.764 596.493 L 532.212 583.747 C 545.06 498.599 630.385 510.93 695.065 510.937 L 846.356 510.84 z"/>
<path transform="translate(0,0)" fill="rgb(82,82,82)" d="M 532.212 583.747 C 545.06 498.599 630.385 510.93 695.065 510.937 L 846.356 510.84 C 844.536 512.452 839.682 516.336 838.898 518.239 C 838.518 527.309 835.676 544.972 833.687 554.189 C 772.945 552.237 710.223 554.598 649.334 554.235 C 645.563 554.212 637.177 555.947 634.146 558.319 C 629.81 560.314 625.288 561.895 623.532 566.429 C 624.156 574.326 630.891 577.069 623.586 585.544 C 621.343 582.233 619.855 578.838 615.641 579.145 L 613.53 582.982 C 607.956 589.038 608.031 617.659 604.775 625.401 C 601.872 624.972 583.378 615.557 573.468 613.561 C 554.976 609.836 550.263 614.356 535.626 613.457 C 536.077 607.868 538.462 593.634 537.271 589.442 C 532.865 616.874 528.738 641.703 525.49 669.298 C 524.788 667.746 524.806 666.188 524.66 664.473 C 514.088 670.614 520.6 690.082 519.067 699.392 C 511.586 674.168 525.529 641.188 525.439 620.09 C 526.83 612.215 528.272 604.349 529.764 596.493 L 532.212 583.747 z"/>
<path transform="translate(0,0)" fill="url(#Gradient9)" d="M 532.212 583.747 C 545.06 498.599 630.385 510.93 695.065 510.937 L 846.356 510.84 C 844.536 512.452 839.682 516.336 838.898 518.239 C 825.949 520.244 803.755 519.144 790.13 519.147 L 685.847 519.088 C 643.213 519.031 581.099 512.109 550.955 548.27 C 543.868 556.772 536.611 578.294 537.271 589.442 C 532.865 616.874 528.738 641.703 525.49 669.298 C 524.788 667.746 524.806 666.188 524.66 664.473 C 514.088 670.614 520.6 690.082 519.067 699.392 C 511.586 674.168 525.529 641.188 525.439 620.09 C 526.83 612.215 528.272 604.349 529.764 596.493 L 532.212 583.747 z"/>
<path transform="translate(0,0)" fill="url(#Gradient8)" d="M 846.356 510.84 L 847.567 511.324 C 851.221 518.789 854.809 526.286 858.332 533.814 C 858.107 536.596 857.061 553.146 856.346 554.682 L 855.916 564.367 C 854.085 566.922 854.59 568.507 854.369 572.059 C 853.758 575.306 852.429 590.161 852.137 590.82 C 795.862 591.952 739.241 590.447 682.931 590.895 C 668.327 591.012 656.363 591.652 649.665 606.68 C 648.16 610.074 644.395 621.249 644.846 624.837 C 647.384 623.284 649.375 623.508 652.376 623.368 C 641.831 628.029 642.866 637.556 641.369 648.177 C 639.6 657.625 638.039 667.111 636.689 676.628 C 636.245 679.315 636.087 683.189 635.879 686.001 C 628.678 691.822 616.024 678.826 610.74 673.691 C 607.974 662.999 619.583 595.123 623.586 585.544 C 630.891 577.069 624.156 574.326 623.532 566.429 C 625.288 561.895 629.81 560.314 634.146 558.319 C 637.177 555.947 645.563 554.212 649.334 554.235 C 710.223 554.598 772.945 552.237 833.687 554.189 C 835.676 544.972 838.518 527.309 838.898 518.239 C 839.682 516.336 844.536 512.452 846.356 510.84 z"/>
<path transform="translate(0,0)" fill="url(#Gradient7)" d="M 623.586 585.544 C 630.891 577.069 624.156 574.326 623.532 566.429 C 625.288 561.895 629.81 560.314 634.146 558.319 C 630.03 562.385 629.257 562.208 628.321 567.23 L 629.177 568.406 C 632.779 568.42 633.546 568.085 637.001 566.957 L 636.991 568.604 L 638.674 566.83 L 638.224 567.28 C 635.964 569.508 634.29 570.732 631.795 572.599 C 632.293 582.541 635.483 621.107 643.437 626.348 L 644.846 624.837 C 647.384 623.284 649.375 623.508 652.376 623.368 C 641.831 628.029 642.866 637.556 641.369 648.177 C 639.6 657.625 638.039 667.111 636.689 676.628 C 636.245 679.315 636.087 683.189 635.879 686.001 C 628.678 691.822 616.024 678.826 610.74 673.691 C 607.974 662.999 619.583 595.123 623.586 585.544 z"/>
<path transform="translate(0,0)" fill="url(#Gradient6)" d="M 846.356 510.84 L 847.567 511.324 C 851.221 518.789 854.809 526.286 858.332 533.814 C 858.107 536.596 857.061 553.146 856.346 554.682 L 855.916 564.367 C 854.085 566.922 854.59 568.507 854.369 572.059 L 853.594 569.224 L 852.59 568.97 C 851.59 572.575 850.961 575.964 848.883 579.019 L 847.518 578.597 C 846.664 576.902 846.085 575.608 845.342 573.856 L 840.689 564.74 C 838.346 561.493 835.908 557.589 833.687 554.189 C 835.676 544.972 838.518 527.309 838.898 518.239 C 839.682 516.336 844.536 512.452 846.356 510.84 z"/>
<path transform="translate(0,0)" fill="rgb(193,192,191)" d="M 846.356 510.84 L 847.567 511.324 C 846.952 519.041 843.203 559.267 840.689 564.74 C 838.346 561.493 835.908 557.589 833.687 554.189 C 835.676 544.972 838.518 527.309 838.898 518.239 C 839.682 516.336 844.536 512.452 846.356 510.84 z"/>
<path transform="translate(0,0)" fill="rgb(31,28,28)" d="M 845.342 573.856 C 848.744 568.766 848.555 556.674 855.285 552.887 L 856.346 554.682 L 855.916 564.367 C 854.085 566.922 854.59 568.507 854.369 572.059 L 853.594 569.224 L 852.59 568.97 C 851.59 572.575 850.961 575.964 848.883 579.019 L 847.518 578.597 C 846.664 576.902 846.085 575.608 845.342 573.856 z"/>
<path transform="translate(0,0)" fill="rgb(31,28,28)" d="M 644.846 624.837 C 644.395 621.249 648.16 610.074 649.665 606.68 C 656.363 591.652 668.327 591.012 682.931 590.895 C 739.241 590.447 795.862 591.952 852.137 590.82 C 847.494 595.619 842.535 599.738 840.424 605.964 C 840.756 609.125 840.868 609.299 842.216 612.225 C 839.345 621.916 836.345 641.995 834.616 652.359 C 830.628 675.695 826.997 699.091 823.725 722.538 C 823.183 726.601 821.372 747.929 819.491 749.011 C 817.611 747.757 816.382 747.063 814.812 745.388 L 814.704 744.141 L 810.338 739.14 C 809.226 737.097 806.868 734.565 805.294 732.697 C 809.682 702.724 818.866 654.61 821.276 625.702 C 822.427 623.43 823.481 611.451 823.814 608.243 C 818.498 609.765 703.049 610.006 697.476 608.798 L 695.901 621.479 L 693.2 641.854 C 710.45 641.983 727.701 641.876 744.948 641.533 C 741.408 645.012 736.733 649.234 734.751 653.743 L 732.985 652.141 C 724.453 651.475 689.74 651.385 682.963 654.077 L 682.788 652.939 L 682.735 651.507 C 680.504 651.294 673.069 654.179 669.344 654.075 C 664.257 653.896 668.535 645.148 663.992 641.725 C 655.898 635.625 646.2 641.537 641.369 648.177 C 642.866 637.556 641.831 628.029 652.376 623.368 C 649.375 623.508 647.384 623.284 644.846 624.837 z"/>
<path transform="translate(0,0)" fill="url(#Gradient5)" d="M 834.014 599.888 C 834.782 604.073 830.9 626.442 830.082 631.907 L 820.985 692.506 C 820.574 695.225 814.061 745.691 814.704 744.141 L 810.338 739.14 C 809.226 737.097 806.868 734.565 805.294 732.697 C 809.682 702.724 818.866 654.61 821.276 625.702 C 822.427 623.43 823.481 611.451 823.814 608.243 C 825.219 605.245 831.073 601.868 834.014 599.888 z"/>
<path transform="translate(0,0)" fill="rgb(104,99,99)" d="M 691.869 600.96 C 738.071 600.959 787.934 601.095 834.014 599.888 C 831.073 601.868 825.219 605.245 823.814 608.243 C 818.498 609.765 703.049 610.006 697.476 608.798 C 696.21 606.57 693.481 603.128 691.869 600.96 z"/>
<path transform="translate(0,0)" fill="url(#Gradient4)" d="M 652.376 623.368 C 663.362 621.819 676.622 618.696 688.183 616.816 C 687.37 625.93 685.704 642.97 682.735 651.507 C 680.504 651.294 673.069 654.179 669.344 654.075 C 664.257 653.896 668.535 645.148 663.992 641.725 C 655.898 635.625 646.2 641.537 641.369 648.177 C 642.866 637.556 641.831 628.029 652.376 623.368 z"/>
<path transform="translate(0,0)" fill="rgb(10,8,8)" d="M 842.216 612.225 L 848.16 619.828 L 828.418 757.861 L 829.242 758.65 C 828.006 762.537 825.837 765.638 823.687 769.105 C 830.922 768.422 844.872 768.155 851.66 770.873 C 843.263 771.29 833.739 771.095 825.299 770.99 C 769.477 770.298 713.176 772.137 657.401 770.956 C 648.363 769.377 630.083 769.211 619.867 768.279 C 620.302 763.832 619.204 764.032 619.195 761.177 L 624.493 760.035 C 616.102 760.04 611.441 759.652 603.147 758.688 C 585.692 759.635 563.787 746.107 549.201 737.437 C 608.013 745.343 674.293 743.591 733.861 743.57 L 784.35 743.541 C 791.531 743.535 804.358 743.909 811.205 743.289 C 810.774 741.692 810.409 740.793 810.338 739.14 L 814.704 744.141 L 814.812 745.388 C 816.382 747.063 817.611 747.757 819.491 749.011 C 821.372 747.929 823.183 726.601 823.725 722.538 C 826.997 699.091 830.628 675.695 834.616 652.359 C 836.345 641.995 839.345 621.916 842.216 612.225 z"/>
<path transform="translate(0,0)" fill="rgb(31,28,28)" d="M 828.418 757.861 L 829.242 758.65 C 828.006 762.537 825.837 765.638 823.687 769.105 C 830.922 768.422 844.872 768.155 851.66 770.873 C 843.263 771.29 833.739 771.095 825.299 770.99 C 769.477 770.298 713.176 772.137 657.401 770.956 C 648.363 769.377 630.083 769.211 619.867 768.279 C 620.302 763.832 619.204 764.032 619.195 761.177 L 624.493 760.035 C 627.311 759.388 662.986 760.049 667.685 760.094 C 703.871 760.647 740.061 760.8 776.251 760.554 C 791.775 760.497 807.932 760.558 823.492 760.222 C 826.615 760.155 826.865 759.674 828.418 757.861 z"/>
<path transform="translate(0,0)" fill="rgb(31,28,28)" d="M 549.201 737.437 C 608.013 745.343 674.293 743.591 733.861 743.57 L 784.35 743.541 C 791.531 743.535 804.358 743.909 811.205 743.289 C 810.774 741.692 810.409 740.793 810.338 739.14 L 814.704 744.141 L 814.812 745.388 L 649.561 745.182 C 623.414 745.254 592.248 749.56 568.016 744.483 C 565.529 743.961 564.984 743.954 562.517 743.864 C 572.417 749.199 581.807 752.901 592.703 755.53 C 596.27 756.391 600.419 756.335 603.147 758.688 C 585.692 759.635 563.787 746.107 549.201 737.437 z"/>
<path transform="translate(0,0)" fill="rgb(104,99,99)" d="M 641.369 648.177 C 646.2 641.537 655.898 635.625 663.992 641.725 C 668.535 645.148 664.257 653.896 669.344 654.075 C 673.069 654.179 680.504 651.294 682.735 651.507 L 682.788 652.939 L 682.963 654.077 C 689.74 651.385 724.453 651.475 732.985 652.141 L 734.751 653.743 C 733.216 661.53 732.153 667.416 731.257 675.345 L 729.659 687.135 C 730.634 690.919 731.902 692.2 734.232 695.228 L 661.712 695.281 C 647.81 695.276 620.364 697.33 609.534 689.983 C 615.113 683.872 613.486 680.434 610.74 673.691 C 616.024 678.826 628.678 691.822 635.879 686.001 C 636.087 683.189 636.245 679.315 636.689 676.628 C 638.039 667.111 639.6 657.625 641.369 648.177 z"/>
<path transform="translate(0,0)" fill="rgb(60,53,53)" d="M 682.963 654.077 C 689.74 651.385 724.453 651.475 732.985 652.141 L 734.751 653.743 C 733.216 661.53 732.153 667.416 731.257 675.345 L 729.659 687.135 C 708.892 686.258 686.307 687.191 665.157 686.671 C 667.013 679.42 671.417 669.116 674.706 662.433 C 677.321 659.202 680.016 656.036 682.788 652.939 L 682.963 654.077 z"/>
<path transform="translate(0,0)" fill="rgb(10,8,8)" d="M 682.963 654.077 C 689.74 651.385 724.453 651.475 732.985 652.141 L 734.751 653.743 C 733.216 661.53 732.153 667.416 731.257 675.345 C 720.658 675.277 710.063 674.89 699.487 674.185 C 694.699 668 686.393 660.293 682.963 654.077 z"/>
<path transform="translate(0,0)" fill="url(#Gradient3)" d="M 641.369 648.177 C 646.2 641.537 655.898 635.625 663.992 641.725 C 668.535 645.148 664.257 653.896 669.344 654.075 C 673.069 654.179 680.504 651.294 682.735 651.507 L 682.788 652.939 C 680.016 656.036 677.321 659.202 674.706 662.433 C 673.855 659.518 673.681 657.474 671.323 655.754 C 663.16 656.623 653.526 678.02 649.15 685.518 C 644.142 685.841 641.595 686.902 637.801 684.817 C 636.574 681.905 636.773 679.787 636.689 676.628 C 638.039 667.111 639.6 657.625 641.369 648.177 z"/>
<path transform="translate(0,0)" fill="rgb(193,192,191)" d="M 613.53 582.982 L 615.641 579.145 C 619.855 578.838 621.343 582.233 623.586 585.544 C 619.583 595.123 607.974 662.999 610.74 673.691 C 613.486 680.434 615.113 683.872 609.534 689.983 C 594.339 676.666 601.603 653.204 604.595 635.692 C 607.686 618.141 610.664 600.571 613.53 582.982 z"/>
<path transform="translate(0,0)" fill="rgb(82,82,82)" d="M 697.476 608.798 C 703.049 610.006 818.498 609.765 823.814 608.243 C 823.481 611.451 822.427 623.43 821.276 625.702 L 820.393 624.818 C 820.774 621.976 820.848 621.572 820.535 618.752 C 819.345 619.334 813.88 621.757 812.858 621.947 C 802.84 623.817 755.796 618.58 748.491 614.737 L 748.247 613.398 L 750.985 611.5 C 745.303 610.346 715.179 611.026 707.958 611.114 C 703.258 615.167 700.558 616.693 695.901 621.479 L 697.476 608.798 z"/>
<path transform="translate(0,0)" fill="rgb(193,192,191)" d="M 458.016 776.85 L 457.304 772.013 C 454.372 753.134 460.814 728.328 464.773 709.879 C 469.401 688.309 476.242 667.536 486.207 647.882 C 488.481 643.397 488.393 638.252 492.068 634.608 C 491.313 633.741 490.503 633.422 489.498 632.894 L 490.326 631.285 L 492.217 631.202 C 492.48 630.267 492.773 629.342 493.095 628.426 C 500.601 606.803 511.834 593.705 532.212 583.747 L 529.764 596.493 C 528.272 604.349 526.83 612.215 525.439 620.09 C 525.529 641.188 511.586 674.168 519.067 699.392 C 522.265 715.695 533.595 731.081 549.201 737.437 C 563.787 746.107 585.692 759.635 603.147 758.688 C 611.441 759.652 616.102 760.04 624.493 760.035 L 619.195 761.177 C 619.204 764.032 620.302 763.832 619.867 768.279 C 630.083 769.211 648.363 769.377 657.401 770.956 C 610.501 772.274 563.049 770.336 516.102 771.161 C 513.882 771.2 513.312 771.404 511.917 772.855 C 511.022 776.72 509.357 787.8 509.188 791.886 C 510.348 797.731 515.472 798.464 520.839 800.488 L 533.081 805.821 C 546.927 815.425 556.377 812.945 570.266 823.529 L 570.853 823.451 C 582.547 821.978 613.925 825.311 627.692 825.888 C 631.131 829.985 630.963 835.782 631.004 840.928 C 740.808 842.604 850.627 843.083 960.442 842.363 C 979.185 842.156 997.788 841.589 1016.49 840.165 C 1038.29 838.505 1057.67 835.062 1079.49 836.711 C 1128.86 843.661 1174.3 840.907 1224.06 841.379 L 1316.17 842.628 C 1387.81 843.212 1388.11 842.904 1449.53 806.944 C 1447.79 811.121 1443.4 815.734 1440.02 819.306 C 1425.13 835.065 1409.57 855.096 1389 863.586 C 1383.32 865.932 1374.4 865.19 1368.52 866.598 C 1339.62 873.518 1311.77 871.241 1282.29 871.57 C 1265.87 871.755 1249.45 872.057 1233.03 872.474 C 1224.46 872.732 1217.76 874.196 1209.07 872.448 C 1205.27 872.42 1200.47 873.636 1196.73 873.513 C 1167.81 872.566 1138.55 874.663 1109.76 874.604 C 1083.31 874.551 1054.81 867.524 1027.89 869.48 C 955.173 874.763 882.511 877.14 809.585 874.997 C 783.948 874.244 756.705 870.533 731.217 871.494 C 696.684 872.795 662.241 872.461 627.68 872.594 C 587.302 873.762 546.76 874.642 506.458 871.389 C 488.907 869.972 468.164 856.3 465.03 837.914 C 463.276 827.622 463.998 817.319 462.783 806.966 C 462.029 799.114 456.994 783.89 458.016 776.85 z"/>
<path transform="translate(0,0)" fill="url(#Gradient2)" d="M 525.439 620.09 C 525.529 641.188 511.586 674.168 519.067 699.392 C 522.265 715.695 533.595 731.081 549.201 737.437 C 563.787 746.107 585.692 759.635 603.147 758.688 C 611.441 759.652 616.102 760.04 624.493 760.035 L 619.195 761.177 C 619.204 764.032 620.302 763.832 619.867 768.279 C 630.083 769.211 648.363 769.377 657.401 770.956 C 610.501 772.274 563.049 770.336 516.102 771.161 C 513.882 771.2 513.312 771.404 511.917 772.855 C 511.022 776.72 509.357 787.8 509.188 791.886 C 510.348 797.731 515.472 798.464 520.839 800.488 L 533.081 805.821 C 546.927 815.425 556.377 812.945 570.266 823.529 L 570.853 823.451 C 582.547 821.978 613.925 825.311 627.692 825.888 C 631.131 829.985 630.963 835.782 631.004 840.928 C 609.806 841.553 589.46 841.056 567.011 841.134 C 549.026 841.196 513.12 846.428 496.238 841.348 C 483.428 837.493 488.363 815.042 487.169 805.323 C 485.536 792.039 478.405 774.322 479.809 760.155 C 482.582 727.338 492.312 691.714 503.417 660.692 C 507.745 648.598 518.579 630.572 525.439 620.09 z"/>
<path transform="translate(0,0)" fill="rgb(205,204,204)" d="M 458.016 776.85 L 457.304 772.013 C 454.372 753.134 460.814 728.328 464.773 709.879 C 469.401 688.309 476.242 667.536 486.207 647.882 C 488.481 643.397 488.393 638.252 492.068 634.608 C 491.313 633.741 490.503 633.422 489.498 632.894 L 490.326 631.285 L 492.217 631.202 C 492.48 630.267 492.773 629.342 493.095 628.426 C 500.601 606.803 511.834 593.705 532.212 583.747 L 529.764 596.493 C 486.17 626.123 464.04 707.558 459.888 757.336 C 459.455 762.526 461.656 773 459.846 777.365 L 458.892 776.672 L 458.016 776.85 z"/>
<path transform="translate(0,0)" fill="rgb(60,53,53)" d="M 533.081 805.821 C 547.265 806.421 565.504 805.874 579.927 805.859 L 689.6 805.341 L 1069.34 805.119 C 1070.39 805.901 1082.64 808.081 1085.82 809.079 L 1086.86 810.313 C 1080.6 813.252 1063.63 819.233 1066.67 827.656 C 1070.1 830.908 1071.35 830.172 1075.15 832.286 C 1076.65 833.125 1077.21 835.28 1079.49 836.711 C 1057.67 835.062 1038.29 838.505 1016.49 840.165 C 997.788 841.589 979.185 842.156 960.442 842.363 C 850.627 843.083 740.808 842.604 631.004 840.928 C 630.963 835.782 631.131 829.985 627.692 825.888 C 613.925 825.311 582.547 821.978 570.853 823.451 L 570.266 823.529 C 556.377 812.945 546.927 815.425 533.081 805.821 z"/>
<path transform="translate(0,0)" fill="rgb(60,53,53)" d="M 1444.37 804.748 L 1449.31 805.076 L 1449.95 805.834 L 1449.53 806.944 C 1388.11 842.904 1387.81 843.212 1316.17 842.628 L 1224.06 841.379 C 1174.3 840.907 1128.86 843.661 1079.49 836.711 C 1077.21 835.28 1076.65 833.125 1075.15 832.286 C 1071.35 830.172 1070.1 830.908 1066.67 827.656 C 1063.63 819.233 1080.6 813.252 1086.86 810.313 L 1085.82 809.079 C 1082.64 808.081 1070.39 805.901 1069.34 805.119 C 1098.61 803.789 1137.12 804.825 1166.93 804.818 L 1352.5 804.866 C 1378.85 804.89 1419.37 806.362 1444.37 804.748 z"/>
<path transform="translate(0,0)" fill="rgb(250,98,105)" d="M 1266.37 742.161 C 1267.16 738.625 1267.12 738.279 1269.14 735.388 C 1276.56 731.181 1280.27 732.498 1288.7 732.272 C 1300.64 736.882 1319.73 746.138 1315.99 763.489 C 1315.23 767.012 1311.64 768.157 1308.64 769.768 L 1327.97 770.075 L 1344.01 770.501 C 1360.82 770.27 1427.85 774.693 1436.8 768.237 C 1443.09 773.107 1475.14 766.569 1482.68 771.58 C 1483.59 772.187 1482.75 778.868 1482.47 780.869 C 1482.26 778.765 1481.65 776.772 1481.12 774.712 L 1480 775.286 C 1470.75 778.311 1340.7 776.107 1321.39 776.073 L 867.548 775.928 L 619.612 775.843 L 551.677 775.547 C 540.785 775.54 523.174 776.061 512.71 775.269 L 511.917 772.855 C 513.312 771.404 513.882 771.2 516.102 771.161 C 563.049 770.336 610.501 772.274 657.401 770.956 C 713.176 772.137 769.477 770.298 825.299 770.99 C 833.739 771.095 843.263 771.29 851.66 770.873 C 857.629 771.483 871.192 771.127 877.648 771.119 L 926.742 771.018 L 1086.46 770.283 L 1130.11 770.413 C 1162.62 769.82 1197.08 771.695 1229.37 769.791 C 1232.33 766.946 1233.77 765.852 1237.05 763.485 L 1242.85 758.809 C 1248.69 755.153 1254.42 750.936 1260.05 746.935 L 1266.37 742.161 z"/>
<path transform="translate(0,0)" fill="url(#Gradient1)" d="M 1266.37 742.161 C 1267.16 738.625 1267.12 738.279 1269.14 735.388 C 1276.56 731.181 1280.27 732.498 1288.7 732.272 C 1300.64 736.882 1319.73 746.138 1315.99 763.489 C 1315.23 767.012 1311.64 768.157 1308.64 769.768 C 1291.1 770.389 1273.04 769.487 1255.45 769.909 C 1248.58 770.074 1240.96 770.079 1234.15 769.426 C 1233.89 768.093 1236.14 765.024 1237.05 763.485 L 1242.85 758.809 C 1248.69 755.153 1254.42 750.936 1260.05 746.935 L 1266.37 742.161 z"/>
<path transform="translate(0,0)" fill="rgb(252,194,199)" d="M 1480 775.286 C 1433.69 774.537 1386.84 775.814 1340.45 775.083 C 1336.04 775.014 1306.37 775.242 1303.76 774.45 C 1306.38 773.077 1465.49 772.305 1479.4 773.287 L 1481.12 774.712 L 1480 775.286 z"/>
<path transform="translate(0,0)" fill="rgb(106,27,30)" d="M 621.46 796.809 C 650.212 798.385 691.922 796.821 722.02 796.81 L 922.269 796.979 C 1064.56 797.133 1206.9 797.796 1349.2 798.045 C 1377.87 798.095 1408.85 803.25 1438.51 803.902 L 1444.37 804.748 C 1419.37 806.362 1378.85 804.89 1352.5 804.866 L 1166.93 804.818 C 1137.12 804.825 1098.61 803.789 1069.34 805.119 L 689.6 805.341 L 579.927 805.859 C 565.504 805.874 547.265 806.421 533.081 805.821 L 520.839 800.488 C 527.002 795.996 607.904 797.26 621.46 796.809 z"/>
<path transform="translate(0,0)" fill="rgb(117,30,33)" d="M 509.188 791.886 L 509.669 792.045 L 626.687 791.984 C 643.693 791.98 670.151 791.141 685.983 792.171 C 707.356 793.433 737.6 792.533 759.986 792.528 L 897.642 792.458 L 1263.95 793.975 L 1376.61 793.899 C 1386.34 793.888 1421.33 793.346 1429.53 794.798 L 1434.63 795.14 C 1437.78 795.798 1439.08 796.075 1442.23 795.381 L 1443.46 796.568 C 1441.36 797.285 1440.93 797.309 1438.8 797.616 C 1441.52 799.569 1446.72 803.587 1449.31 805.076 L 1444.37 804.748 L 1438.51 803.902 C 1408.85 803.25 1377.87 798.095 1349.2 798.045 C 1206.9 797.796 1064.56 797.133 922.269 796.979 L 722.02 796.81 C 691.922 796.821 650.212 798.385 621.46 796.809 C 607.904 797.26 527.002 795.996 520.839 800.488 C 515.472 798.464 510.348 797.731 509.188 791.886 z"/>
<path transform="translate(0,0)" fill="rgb(157,84,88)" d="M 1429.53 794.798 L 1434.63 795.14 C 1437.78 795.798 1439.08 796.075 1442.23 795.381 L 1443.46 796.568 C 1441.36 797.285 1440.93 797.309 1438.8 797.616 C 1441.52 799.569 1446.72 803.587 1449.31 805.076 L 1444.37 804.748 L 1438.51 803.902 C 1426.76 799.78 1412.68 798.188 1400.23 795.579 C 1409.92 795.205 1419.82 795.052 1429.53 794.798 z"/>
<path transform="translate(0,0)" fill="rgb(106,27,30)" d="M 685.983 792.171 C 746.404 791.376 807.859 791.922 868.347 791.895 L 1165.44 791.532 L 1367.08 791.548 C 1402.54 791.48 1438.14 790.882 1473.61 791.245 C 1476.73 791.277 1479.08 791.369 1481.59 793.37 L 1479.41 795.053 C 1470.84 797.925 1458.11 801.999 1449.95 805.834 L 1449.31 805.076 C 1446.72 803.587 1441.52 799.569 1438.8 797.616 C 1440.93 797.309 1441.36 797.285 1443.46 796.568 L 1442.23 795.381 C 1439.08 796.075 1437.78 795.798 1434.63 795.14 L 1429.53 794.798 C 1421.33 793.346 1386.34 793.888 1376.61 793.899 L 1263.95 793.975 L 897.642 792.458 L 759.986 792.528 C 737.6 792.533 707.356 793.433 685.983 792.171 z"/>
<path transform="translate(0,0)" fill="rgb(181,130,134)" d="M 1434.63 795.14 C 1449.56 794.928 1464.48 794.899 1479.41 795.053 C 1470.84 797.925 1458.11 801.999 1449.95 805.834 L 1449.31 805.076 C 1446.72 803.587 1441.52 799.569 1438.8 797.616 C 1440.93 797.309 1441.36 797.285 1443.46 796.568 L 1442.23 795.381 C 1439.08 796.075 1437.78 795.798 1434.63 795.14 z"/>
</svg>